<?xml version="1.0" encoding="utf-8"?>
<!-- Generator: Adobe Illustrator 25.0.1, SVG Export Plug-In . SVG Version: 6.00 Build 0)  -->
<svg version="1.1" id="Layer_1" xmlns="http://www.w3.org/2000/svg" xmlns:xlink="http://www.w3.org/1999/xlink" x="0px" y="0px"
	 viewBox="0 0 78.71 95.97" style="enable-background:new 0 0 78.71 95.97;" xml:space="preserve">
<g>
	<g>
		<g>
			<g>
				<path d="M26.46,65.63c-1.13-1.12-2.04-2.3-2.74-3.51l-4.83,9.43L3.18,78.9c-2.76,1.29-3.96,4.58-2.66,7.34
					c0.94,2.01,2.93,3.18,5.01,3.18c0.78,0,1.58-0.17,2.34-0.52l19.14-8.95l4.68-9.15L26.46,65.63z"/>
				<g>
					<path d="M43.43,11.06C43.43,4.92,48.38,0,54.49,0c6.11,0,11.06,4.92,11.06,11.06c0,6.13-4.95,11.06-11.06,11.06
						C48.38,22.12,43.43,17.19,43.43,11.06z"/>
				</g>
				<g>
					<path d="M57.03,63.01c0-5.76,4.65-10.39,10.39-10.39c5.74,0,10.39,4.62,10.39,10.39c0,5.76-4.65,10.39-10.39,10.39
						C61.68,73.41,57.03,68.78,57.03,63.01z"/>
				</g>
			</g>
		</g>
	</g>
	<path d="M74.29,39.82H63.59l-7.88-11.36c-2.82-4.61-11.91-6.86-16.64-4.57l-16.59,8.04l-7.5,15.06c-1.09,2.18-0.2,4.84,1.99,5.92
		c0.63,0.31,1.3,0.46,1.97,0.46c1.62,0,3.19-0.9,3.96-2.45l6.15-12.36l4.07-1.97L26.24,52.5c-1.54,3.72-0.6,7.39,2.68,10.64L41.9,76
		l-0.05,14.43c-0.01,3.05,2.45,5.53,5.5,5.54c0.01,0,0.01,0,0.02,0c3.04,0,5.51-2.46,5.52-5.5l0.07-19.06l-10.9-10.8l10.93-20.58
		l5.98,8.62h15.32c2.44,0,4.42-1.98,4.42-4.42S76.73,39.82,74.29,39.82z"/>
</g>
</svg>
