<?xml version="1.0" encoding="utf-8"?>
<!-- Generator: Adobe Illustrator 25.0.1, SVG Export Plug-In . SVG Version: 6.00 Build 0)  -->
<svg version="1.1" id="Layer_1" xmlns="http://www.w3.org/2000/svg" xmlns:xlink="http://www.w3.org/1999/xlink" x="0px" y="0px"
	 viewBox="0 0 90.34 83.57" style="enable-background:new 0 0 90.34 83.57;" xml:space="preserve">
<path d="M90.34,33.82c0,2.49-2.01,4.5-4.5,4.5h-23c1.51-2.87,1.84-6,0.98-9h22.02C88.33,29.32,90.34,31.33,90.34,33.82z
	 M61.74,22.12c6.11,0,11.06-4.93,11.06-11.06C72.8,4.92,67.85,0,61.74,0c-6.12,0-11.06,4.92-11.06,11.06
	C50.67,17.19,55.62,22.12,61.74,22.12z M59.75,83.22c-0.64,0.24-1.29,0.35-1.94,0.35c-2.22,0-4.32-1.36-5.15-3.56l-5.48-14.25
	l-11.78-5.33l-5.77,9.49c-0.71,1.18-1.95,2.64-4.7,2.64H5.5c-3.04,0-5.5-2.46-5.5-5.5c0-3.04,2.46-5.5,5.5-5.5h16.34l7.77-12.64
	c-0.43-0.37-0.81-0.83-1.08-1.37l-6.96-13.76c-1.11-2.49-0.17-5.7,3.03-6.42l22.07-4.94c8.31-1.87,17.82,6.81,12.73,14.94
	L48.25,54.16l5.55,2.51c1.38,0.63,2.38,1.75,2.88,3.07c0,0,0,0,0,0l6.28,16.39C64.03,78.98,62.59,82.15,59.75,83.22z M41.79,36.81
	c-1.97-1.65-4.39-2.49-7.2-2.49c-1,0-1.87,0.11-2.55,0.24l4.51,8.92c0.28,0.55,0.42,1.13,0.46,1.7c1.68,0.99,3.61,1.49,5.78,1.49h0
	c1.18,0,2.2-0.15,2.91-0.3C45.78,44.33,45.46,39.89,41.79,36.81z"/>
</svg>
