<?xml version="1.0" encoding="utf-8"?>
<!-- Generator: Adobe Illustrator 25.0.1, SVG Export Plug-In . SVG Version: 6.00 Build 0)  -->
<svg version="1.1" id="Layer_1" xmlns="http://www.w3.org/2000/svg" xmlns:xlink="http://www.w3.org/1999/xlink" x="0px" y="0px"
	 viewBox="0 0 84.92 86.82" style="enable-background:new 0 0 84.92 86.82;" xml:space="preserve">
<g>
	<path d="M47.88,57.29L35.51,48.6l-5.47,6.2l2.38,5.07l6.49,4.56l7.72,18.96c0.87,2.13,2.93,3.43,5.1,3.43
		c0.69,0,1.39-0.13,2.07-0.41c2.81-1.15,4.17-4.35,3.02-7.17L47.88,57.29z"/>
	<g>
		<g>
			<path d="M63.51,39.47H50.77l-3.31-12.66c-0.84-3.59-4.49-7.46-9.18-7.46l-22.97-0.01c0,0,0,0,0,0c-1.28,0-2.42,0.54-3.24,1.39
				c0,0-10.82,11.31-10.82,11.31c-1.72,1.8-1.65,4.65,0.14,6.36c0.87,0.83,1.99,1.25,3.11,1.25c1.19,0,2.37-0.47,3.25-1.39
				l9.48-9.92l6.69,0l-9.87,11.14c-3.09,3.49-3.44,7.75-1.53,12.12l6.77,14.42L6.12,77.11c-2.32,1.96-2.62,5.43-0.66,7.75
				c1.09,1.29,2.64,1.95,4.21,1.95c1.25,0,2.51-0.43,3.54-1.3l19.61-16.54L25.89,54.2l14.99-16.98l2.06,7.88
				c0.53,2.02,2.35,3.36,4.35,3.36c0,0,16.22,0,16.22,0c2.49,0,4.5-2.01,4.5-4.5C68.01,41.48,66,39.47,63.51,39.47z"/>
			<path d="M65.92,11.07c0,6.11-4.96,11.07-11.07,11.07c-6.12,0-11.07-4.96-11.07-11.07S48.74,0,54.85,0
				C60.97,0,65.92,4.96,65.92,11.07z"/>
			<path d="M77.5,51.06c-4.09,0-7.42-3.33-7.42-7.42s3.33-7.42,7.42-7.42c4.09,0,7.42,3.33,7.42,7.42S81.59,51.06,77.5,51.06z
				 M77.5,39.73c-2.16,0-3.92,1.76-3.92,3.92c0,2.16,1.76,3.92,3.92,3.92c2.16,0,3.92-1.76,3.92-3.92
				C81.42,41.48,79.66,39.73,77.5,39.73z"/>
		</g>
	</g>
</g>
</svg>
