<?xml version="1.0" encoding="utf-8"?>
<!-- Generator: Adobe Illustrator 25.0.1, SVG Export Plug-In . SVG Version: 6.00 Build 0)  -->
<svg version="1.1" id="Layer_1" xmlns="http://www.w3.org/2000/svg" xmlns:xlink="http://www.w3.org/1999/xlink" x="0px" y="0px"
	 viewBox="0 0 63.77 107.65" style="enable-background:new 0 0 63.77 107.65;" xml:space="preserve">
<g>
	<path d="M31.88,23.75c6.12,0,11.06-4.93,11.06-11.06c0-6.14-4.95-11.06-11.06-11.06c-6.11,0-11.06,4.92-11.06,11.06
		C20.82,18.83,25.77,23.75,31.88,23.75z"/>
	<path d="M61.49,38.77c-1.24-0.69-12.2-6.73-14.11-7.7c-0.17-0.08-0.32-0.17-0.49-0.26c-2.54-1.42-5.42-2.59-15-2.59
		c-9.58,0-12.46,1.17-15,2.59c-0.16,0.09-0.32,0.18-0.49,0.26c-1.91,0.96-12.87,7.01-14.12,7.7c-2.14,1.18-2.91,3.87-1.73,6
		c0.28,0.51,0.66,0.94,1.08,1.29v32.98c0,16.68,13.57,30.25,30.25,30.25s30.25-13.57,30.25-30.25V46.06
		c0.43-0.35,0.8-0.78,1.08-1.29C64.4,42.64,63.62,39.95,61.49,38.77z M31.89,105.79c-14.75,0-26.75-12-26.75-26.75V46.98
		c0.48-0.08,0.96-0.22,1.42-0.47c3.34-1.84,12.33-6.79,13.82-7.54c0.27-0.14,0.53-0.28,0.8-0.43v55.44c0,2.76,2.24,5,5,5
		c2.76,0,5-2.24,5-5V69.75c0-0.69,0.56-1.25,1.25-1.25s1.25,0.56,1.25,1.25l0,24.22c0,2.76,2.24,5,5,5c2.76,0,5-2.24,5-5V39.11
		c2.07,1.08,10.36,5.64,13.54,7.4c0.45,0.25,0.93,0.41,1.42,0.49v32.05C58.64,93.79,46.64,105.79,31.89,105.79z"/>
</g>
</svg>
