<?xml version="1.0" encoding="utf-8"?>
<!-- Generator: Adobe Illustrator 25.0.1, SVG Export Plug-In . SVG Version: 6.00 Build 0)  -->
<svg version="1.1" id="Layer_1" xmlns="http://www.w3.org/2000/svg" xmlns:xlink="http://www.w3.org/1999/xlink" x="0px" y="0px"
	 viewBox="0 0 71.69 90.24" style="enable-background:new 0 0 71.69 90.24;" xml:space="preserve">
<path d="M35.12,22.12c-6.11,0-11.06-4.93-11.06-11.06C24.06,4.92,29.01,0,35.12,0c6.12,0,11.06,4.92,11.06,11.06
	C46.19,17.19,41.24,22.12,35.12,22.12z M61.38,38.71l-13.51-7.53c0.32,1.15,0.51,2.35,0.51,3.6v6.99l8.62,4.81
	c0.69,0.39,1.45,0.57,2.19,0.57c1.58,0,3.11-0.83,3.93-2.31C64.33,42.66,63.55,39.92,61.38,38.71z M51.93,83.17l-7.05-23.8v-24.6
	c0-5.38-4.37-9.75-9.75-9.75c-2.6,0-4.41,0.86-6,1.75L7.72,38.71c-2.17,1.21-2.95,3.95-1.74,6.12c0.82,1.48,2.36,2.31,3.93,2.31
	c0.74,0,1.49-0.18,2.19-0.57l14.27-7.95v15.36l-7.58,11.34H5.5c-3.04,0-5.5,2.46-5.5,5.5c0,3.04,2.46,5.5,5.5,5.5h16.23
	c2.75,0,3.29-0.49,4.57-2.44l7.9-11.81l7.18,24.23c0.71,2.39,2.9,3.94,5.27,3.94c0.52,0,1.04-0.07,1.57-0.23
	C51.13,89.14,52.79,86.08,51.93,83.17z M69.06,89.38c0.2-0.29,4.8-7.12,1.35-14.56c-3.44-7.45-11.63-8.36-11.98-8.4l-1.03-0.1
	l-0.59,0.85c-0.2,0.29-4.8,7.12-1.35,14.56c3.44,7.45,11.63,8.36,11.97,8.4l1.03,0.1L69.06,89.38z M67.23,76.29
	c1.98,4.27,0.41,8.36-0.51,10.16c-1.96-0.47-6.11-1.93-8.08-6.19c-1.98-4.28-0.41-8.36,0.51-10.16
	C61.11,70.57,65.26,72.03,67.23,76.29z"/>
</svg>
