<?xml version="1.0" encoding="utf-8"?>
<!-- Generator: Adobe Illustrator 25.0.1, SVG Export Plug-In . SVG Version: 6.00 Build 0)  -->
<svg version="1.1" id="Layer_1" xmlns="http://www.w3.org/2000/svg" xmlns:xlink="http://www.w3.org/1999/xlink" x="0px" y="0px"
	 viewBox="0 0 72.84 109.84" style="enable-background:new 0 0 72.84 109.84;" xml:space="preserve">
<g>
	<g>
		<g>
			<g>
				<path d="M72.53,25.65c0-6.14-4.95-11.06-11.06-11.06c-6.11,0-11.06,4.92-11.06,11.06c0,6.13,4.95,11.06,11.06,11.06
					C67.58,36.71,72.53,31.78,72.53,25.65z"/>
			</g>
			<path d="M36.27,82.19c-1.41-0.95-3.6-2.44-5.06-4.61l-4.14,9.63L10.05,99.93c-2.43,1.82-2.93,5.27-1.11,7.7
				c1.08,1.44,2.73,2.21,4.41,2.21c1.15,0,2.3-0.36,3.29-1.1c0,0,17.64-13.16,18.2-13.6c0.56-0.44,1.37-1.32,1.76-2.23l3.49-8.11
				L36.27,82.19z"/>
		</g>
	</g>
	<g>
		<path d="M72.04,57.52l-8.39-12.13c-1.32-1.86-3.5-5.42-10.09-6.73c-3.12-0.62-6.06,0.03-7.27,0.67l-2.87,1.54l14.47,16.65
			l1.15-2.97l3.62,5.22l-3.27,3.79L36.13,36.81l0.04-0.37c0.28-2.47-1.5-4.7-3.97-4.97c-0.25-0.03-0.49-0.02-0.73-0.01l-4.96-5.7
			c-0.21-1.04-0.4-3.04-0.24-5.13c0.1-1.29-0.27-2.55-0.97-3.34c-0.78-0.9-1.68-1.93-3.49-4.01c-1.3-1.5-1.58-3.27-1.88-5.16
			c-0.32-1.99-0.64-4.05-2.16-5.8C16.46,0.8,14.55,0,12.26,0C9.55,0,6.5,1.19,4.29,3.11c-3.9,3.39-5.91,9.52-2.67,13.25
			c1.52,1.75,3.52,2.36,5.44,2.95c1.82,0.56,3.54,1.08,4.84,2.58l3.49,4.01c0.78,0.9,2.13,1.44,3.59,1.44c0,0,0,0,0,0
			c1.62,0.04,3.49,0.45,4.7,0.88l4.4,5.07c-0.45,0.61-0.77,1.34-0.86,2.15l-1.93,17.2c-0.28,2.47,1.5,4.7,3.97,4.97
			c0.99,0.11,2.61-0.31,3.81-0.95l6.59-3.54l-6.09,17.74c-1.56,4.56,2.47,6.94,5.12,8.76l10.63,7.26L41.8,97.45
			c-1.76,2.48-1.18,5.91,1.3,7.67c0.97,0.69,2.08,1.02,3.18,1.02c1.72,0,3.42-0.81,4.49-2.31l10.77-15.15
			c1.08-1.55,1.32-5.88-1.38-7.73l-8.99-6.14l4.02-10.34l1.75,2.02c-1.33,1.87-1.06,4.48,0.71,6.01c0.85,0.73,1.89,1.09,2.93,1.09
			c0.72,0,1.42-0.19,2.07-0.52l0.99,1.14c0.37,0.43,0.89,0.65,1.42,0.65c0.44,0,0.88-0.15,1.23-0.46c0.78-0.68,0.87-1.87,0.19-2.65
			l-1.12-1.29l6.39-7.42c0.12-0.15,0.22-0.28,0.31-0.42C73.07,61.1,73.13,59.09,72.04,57.52z M11.74,11.69
			c-1.36,1.18-2.34,2.89-2.62,4.6c-0.35-0.12-0.7-0.23-1.04-0.33c-1.59-0.49-2.96-0.91-3.82-1.9C2.5,12.04,4.07,7.94,6.58,5.75
			c1.58-1.37,3.81-2.25,5.68-2.25c0.87,0,2.07,0.19,2.87,1.11c0.86,0.99,1.09,2.41,1.35,4.05c0.06,0.35,0.12,0.71,0.18,1.08
			C14.93,9.77,13.1,10.51,11.74,11.69z M21.39,22.79c-0.99,0.87-1.86,1.05-2.41,1.05h0c-0.58,0-0.91-0.2-0.95-0.23l-3.49-4.01
			c-0.77-0.88-1.6-1.53-2.46-2.03c-0.18-1.05,0.47-2.6,1.63-3.61c1.16-1.01,2.78-1.43,3.79-1.11c0.38,0.92,0.9,1.83,1.67,2.72
			c1.81,2.08,2.71,3.11,3.48,4C22.79,19.77,23.17,21.24,21.39,22.79z M35.18,45.3l0.39-3.42l1.91,2.19L35.18,45.3z"/>
		<path d="M31.81,8.38c0.77,0.88,0.67,2.22-0.21,2.98c-0.88,0.77-2.22,0.67-2.99-0.21c-0.77-0.88-0.67-2.22,0.21-2.99
			C29.71,7.41,31.05,7.5,31.81,8.38z"/>
	</g>
</g>
</svg>
