<?xml version="1.0" encoding="utf-8"?>
<!-- Generator: Adobe Illustrator 25.0.1, SVG Export Plug-In . SVG Version: 6.00 Build 0)  -->
<svg version="1.1" id="Layer_1" xmlns="http://www.w3.org/2000/svg" xmlns:xlink="http://www.w3.org/1999/xlink" x="0px" y="0px"
	 viewBox="0 0 84.03 110.43" style="enable-background:new 0 0 84.03 110.43;" xml:space="preserve">
<g>
	<path d="M42.01,42.43v25.98H16.03c0,14.35,11.63,25.98,25.98,25.98C56.37,94.4,68,82.76,68,68.41C68,54.06,56.37,42.43,42.01,42.43
		z"/>
	<path d="M66.49,34.27l4.23-7.33c2.04,0.86,2.84,0.88,2.84,0.88l6.86-11.88c0,0-1.03-1.69-6.78-5.01c-5.75-3.32-7.73-3.37-7.73-3.37
		l-6.86,11.88c0,0,0.45,0.73,2.38,2.17l-4.37,7.57c-2.86-1.1-5.87-1.87-8.99-2.32V15.42c4.22-0.28,5.96-0.76,5.96-0.76V0.95
		c0,0-3.35-0.95-12.2-0.95c-8.86,0-12.2,0.95-12.2,0.95v13.72c0,0,1.8,0.5,6.21,0.77v11.44C15.56,29.87,0,47.32,0,68.41
		c0,23.2,18.81,42.02,42.01,42.02c23.2,0,42.02-18.81,42.02-42.02C84.03,54.34,77.1,41.9,66.49,34.27z M42.01,102.43
		C23.26,102.43,8,87.17,8,68.41C8,49.66,23.26,34.4,42.01,34.4c18.76,0,34.02,15.26,34.02,34.01
		C76.03,87.17,60.77,102.43,42.01,102.43z"/>
</g>
</svg>
