<?xml version="1.0" encoding="utf-8"?>
<!-- Generator: Adobe Illustrator 25.0.1, SVG Export Plug-In . SVG Version: 6.00 Build 0)  -->
<svg version="1.1" id="Layer_1" xmlns="http://www.w3.org/2000/svg" xmlns:xlink="http://www.w3.org/1999/xlink" x="0px" y="0px"
	 viewBox="0 0 116.52 84.38" style="enable-background:new 0 0 116.52 84.38;" xml:space="preserve">
<g>
	<g>
		<g>
			<g>
				<g>
					<g>
						<g>
							<path d="M54.59,11.06C54.59,4.92,59.54,0,65.66,0c6.11,0,11.06,4.92,11.06,11.06c0,6.13-4.95,11.06-11.06,11.06
								C59.54,22.12,54.59,17.19,54.59,11.06z"/>
						</g>
					</g>
				</g>
			</g>
		</g>
	</g>
	<circle cx="101" cy="21.6" r="2.75"/>
	<path d="M112.65,11.1c-2.5-2.5-5.36-3.83-8.28-3.86c-3.32-0.04-6.62,1.56-9.8,4.74c-3.95,3.95-6.91,10.09-9.03,18.76
		c-0.66,2.69-1.15,4.55-1.51,5.83l-7.37,7.37c-0.04-0.02-0.07-0.04-0.1-0.06l-10.79-4.58l-3.71-10.5c-1.16-3.66-4.76-5.9-8.48-5.9
		c0,0-22.19,0-22.19,0L19.43,34.85c-1.76,1.76-1.76,4.61,0,6.36c0.88,0.88,2.03,1.32,3.18,1.32c1.15,0,2.3-0.44,3.18-1.32l9.32-9.32
		h5.75l-9.15,9.13c-3.62,3.49-3.97,10.07,2.75,15.98l10.64,9.24l0.59,12.9c0.14,2.95,2.57,5.25,5.49,5.25c0.08,0,0.17,0,0.26-0.01
		c3.03-0.14,5.38-2.71,5.24-5.75l-0.7-15.25c-0.01-0.21-0.05-0.39-0.09-0.55c-0.18-1.26-0.78-2.46-1.81-3.36l-8.19-7.11L56.93,41.3
		l1.67,4.73l14.44,6.12c0.57,0.24,1.17,0.36,1.75,0.36c1.75,0,3.42-1.03,4.14-2.74c0.3-0.7,0.38-1.42,0.32-2.13l7.92-7.92
		c1.28-0.36,3.14-0.85,5.83-1.51c8.67-2.12,14.8-5.08,18.76-9.03c3.18-3.18,4.77-6.48,4.74-9.8
		C116.49,16.46,115.15,13.6,112.65,11.1z M110.11,27.27c-3.47,3.47-8.96,6.09-16.78,8c-5.15,1.26-6.11,0.3-4.85-4.85
		c1.91-7.81,4.53-13.3,8.01-16.78c6.64-6.64,11.9-3.37,14.44-0.82C113.47,15.37,116.75,20.62,110.11,27.27z"/>
	<path d="M32.17,59.64c-3.8-3.34-5.46-6.66-6.12-9.39L1.61,74.69c-2.15,2.15-2.15,5.63,0,7.78c1.07,1.07,2.48,1.61,3.89,1.61
		c1.41,0,2.81-0.54,3.89-1.61l22.8-22.8L32.17,59.64z"/>
</g>
</svg>
