<?xml version="1.0" encoding="utf-8"?>
<!-- Generator: Adobe Illustrator 25.0.1, SVG Export Plug-In . SVG Version: 6.00 Build 0)  -->
<svg version="1.1" id="Layer_1" xmlns="http://www.w3.org/2000/svg" xmlns:xlink="http://www.w3.org/1999/xlink" x="0px" y="0px"
	 viewBox="0 0 76.17 87.06" style="enable-background:new 0 0 76.17 87.06;" xml:space="preserve">
<path d="M76.17,18.79c0-6.14-4.95-11.06-11.06-11.06c-6.11,0-11.06,4.92-11.06,11.06c0,6.13,4.95,11.06,11.06,11.06
	C71.22,29.85,76.17,24.92,76.17,18.79z M55.65,37.04l-1.42,22.85c-0.12,1.97-1.5,3.54-3.3,4.04c0.07,0.42,0.11,0.93,0.02,1.64
	l-2.43,16.78c-0.4,2.74-2.75,4.71-5.44,4.71c-0.26,0-0.53-0.02-0.8-0.06c-3.01-0.44-5.09-3.23-4.65-6.23l2.04-14.05L25.62,52.57
	c-3.36-3.29-2.98-8.7-0.47-11.67l11.73-13.91l-11.05-7.8c-3.23,2.49-9.73,2.15-15.95-1.16C2.53,14.1-1.63,7.52,0.61,3.31
	C2.85-0.9,10.63-1.12,18,2.8c1.57,0.84,31.98,22.41,31.98,22.41C53.48,27.68,55.92,32.77,55.65,37.04z M40.57,52.04l4.83,4.84
	l0.68-11.01L40.57,52.04z M34.72,76.51l-16.87,9.8c-0.87,0.5-1.82,0.75-2.76,0.75c-1.9,0-3.74-0.98-4.76-2.74
	C8.8,81.7,9.7,78.33,12.32,76.8l20.57-11.95l3.07,3.09L34.72,76.51z"/>
</svg>
