<?xml version="1.0" encoding="utf-8"?>
<!-- Generator: Adobe Illustrator 25.0.1, SVG Export Plug-In . SVG Version: 6.00 Build 0)  -->
<svg version="1.1" id="Layer_1" xmlns="http://www.w3.org/2000/svg" xmlns:xlink="http://www.w3.org/1999/xlink" x="0px" y="0px"
	 viewBox="0 0 85.23 97.23" style="enable-background:new 0 0 85.23 97.23;" xml:space="preserve">
<g>
	<g>
		<g>
			<g>
				<g>
					<path d="M27.95,65.4c-0.73-1.12-1.4-2.55-1.89-4.12l-4.3,11.96H5.52C2.47,73.24,0,75.71,0,78.76c0,3.05,2.47,5.52,5.52,5.52
						H29.4l3.87-10.71L27.95,65.4z"/>
					<g>
						<path d="M44.31,11.06C44.31,4.92,49.26,0,55.37,0c6.11,0,11.06,4.92,11.06,11.06c0,6.13-4.95,11.06-11.06,11.06
							C49.26,22.12,44.31,17.19,44.31,11.06z"/>
					</g>
					<g>
						<path d="M64.45,86.78c0-5.76,4.65-10.39,10.39-10.39c5.74,0,10.39,4.62,10.39,10.39c0,5.76-4.65,10.39-10.39,10.39
							C69.1,97.17,64.45,92.54,64.45,86.78z"/>
					</g>
				</g>
			</g>
		</g>
	</g>
	<path d="M74.99,41.08H64.3l-7.87-11.36c-2.58-4.97-9.22-6.45-14.89-5.22l-17.95,3.91L13.23,42.09c-1.47,1.95-1.09,4.72,0.86,6.19
		c0.8,0.6,1.73,0.89,2.66,0.89c1.34,0,2.66-0.6,3.53-1.75l8.37-11.07l6.97-1.52l-6.55,18.27c-1.04,3.45,0.16,7.86,1.81,10.4
		l20.31,31.23c1.06,1.63,2.83,2.51,4.63,2.51c1.03,0,2.08-0.29,3.01-0.89c2.56-1.66,3.28-5.08,1.62-7.64l-16.6-25.52l10.08-21.54
		l5.74,8.28h15.32c2.44,0,4.42-1.98,4.42-4.42C79.41,43.06,77.43,41.08,74.99,41.08z"/>
</g>
</svg>
