<?xml version="1.0" encoding="utf-8"?>
<!-- Generator: Adobe Illustrator 25.0.1, SVG Export Plug-In . SVG Version: 6.00 Build 0)  -->
<svg version="1.1" id="Layer_1" xmlns="http://www.w3.org/2000/svg" xmlns:xlink="http://www.w3.org/1999/xlink" x="0px" y="0px"
	 viewBox="0 0 77.23 71.93" style="enable-background:new 0 0 77.23 71.93;" xml:space="preserve">
<g>
	<path d="M28.63,48.21h-7.98l-1.68,5.38l7.57,15.26c0.96,1.94,2.92,3.07,4.95,3.07c0.82,0,1.66-0.19,2.45-0.58
		c2.73-1.36,3.85-4.67,2.49-7.4L28.63,48.21z"/>
	<g>
		<path d="M55.11,34.51c0-6.14,4.95-11.06,11.06-11.06c6.11,0,11.06,4.92,11.06,11.06c0,6.13-4.95,11.06-11.06,11.06
			C60.06,45.57,55.11,40.65,55.11,34.51z"/>
	</g>
	<path d="M49.39,26.93L36.96,2.41c-1.1-2.17-3.74-3.04-5.91-1.94c-2.17,1.1-3.03,3.75-1.94,5.91l9.7,19.15
		c-5.48,0.01-14.29,0.03-17.63,0.03c-5.58,0-10.24,4.58-11.67,9.47L0.25,64.76c-0.91,2.91,0.72,6.01,3.63,6.92
		c0.55,0.17,1.1,0.25,1.65,0.25c2.35,0,4.53-1.52,5.27-3.88l7.28-23.33h24.81c0.08,0.01,0.16,0,0.24,0v22.77
		c0,2.43,1.97,4.4,4.4,4.4s4.4-1.97,4.4-4.4V41.11C51.92,36.56,51.37,30.81,49.39,26.93z"/>
</g>
</svg>
