<?xml version="1.0" encoding="utf-8"?>
<!-- Generator: Adobe Illustrator 25.0.1, SVG Export Plug-In . SVG Version: 6.00 Build 0)  -->
<svg version="1.1" id="Layer_1" xmlns="http://www.w3.org/2000/svg" xmlns:xlink="http://www.w3.org/1999/xlink" x="0px" y="0px"
	 viewBox="0 0 109.67 67.68" style="enable-background:new 0 0 109.67 67.68;" xml:space="preserve">
<g>
	<g>
		<g>
			<path d="M20.91,24.7L41.2,14.04l9.54,8.29c-1.46,1.03-10.03,7.06-18.36,13.13c1.37,0.49,2.71,1.08,3.97,1.65
				c1.58,0.71,3.74,1.68,4.64,1.68c0.91,0,3.13-0.98,4.75-1.69c2.81-1.24,5.99-2.64,9.09-2.64c3.1,0,6.28,1.4,9.09,2.64
				c1.62,0.71,3.83,1.69,4.74,1.69c0.9,0,3.06-0.97,4.64-1.68c2.77-1.24,5.91-2.65,9.02-2.65c1.64,0,3.28,0.39,4.88,0.95L44.8,0
				L16.3,16.28c-2.32,1.27-3.18,4.18-1.9,6.5C15.67,25.11,18.58,25.96,20.91,24.7z"/>
		</g>
		<g>
			<g>
				<g>
					<path d="M71.89,13.78c0,6.19,5.02,11.21,11.21,11.21c6.2,0,11.22-5.02,11.22-11.21c0-6.19-5.02-11.21-11.22-11.21
						C76.92,2.57,71.89,7.59,71.89,13.78z"/>
				</g>
			</g>
		</g>
	</g>
	<path d="M96,67.68c-2.61,0-5.31-1.21-7.92-2.38c-2.04-0.92-4.35-1.95-5.75-1.95s-3.71,1.04-5.75,1.95
		c-2.61,1.17-5.31,2.38-7.92,2.38c-2.6,0-5.21-1.15-7.97-2.37c-2.08-0.92-4.45-1.96-5.86-1.96c-1.41,0-3.78,1.04-5.86,1.96
		c-2.76,1.22-5.38,2.37-7.98,2.37c-2.61,0-5.31-1.21-7.92-2.38c-2.04-0.92-4.34-1.95-5.74-1.95c-1.4,0-3.71,1.04-5.75,1.95
		c-2.61,1.17-5.31,2.38-7.92,2.38c-2.61,0-5.31-1.21-7.92-2.38C3.71,64.38,1.4,63.34,0,63.34v-8c3.11,0,6.25,1.41,9.02,2.65
		c1.58,0.71,3.74,1.68,4.64,1.68c0.9,0,3.06-0.97,4.64-1.68c2.77-1.24,5.91-2.65,9.02-2.65c3.11,0,6.25,1.41,9.02,2.65
		c1.58,0.71,3.74,1.68,4.64,1.68c0.91,0,3.13-0.98,4.75-1.69c2.81-1.24,5.99-2.64,9.09-2.64c3.1,0,6.28,1.4,9.09,2.64
		c1.62,0.71,3.83,1.69,4.74,1.69c0.9,0,3.06-0.97,4.64-1.68c2.77-1.24,5.91-2.65,9.02-2.65c3.11,0,6.25,1.41,9.02,2.65
		c1.58,0.71,3.74,1.68,4.64,1.68c0.9,0,3.06-0.97,4.64-1.68c2.77-1.24,5.91-2.65,9.02-2.65v8c-1.4,0-3.71,1.04-5.75,1.95
		C101.31,66.47,98.61,67.68,96,67.68z"/>
	<path d="M96,53.05c-2.61,0-5.31-1.21-7.92-2.38c-2.04-0.92-4.35-1.95-5.75-1.95s-3.71,1.04-5.75,1.95
		c-2.61,1.17-5.31,2.38-7.92,2.38c-2.6,0-5.21-1.15-7.97-2.37c-2.08-0.92-4.45-1.96-5.86-1.96c-1.41,0-3.78,1.04-5.86,1.96
		c-2.76,1.22-5.38,2.37-7.98,2.37c-2.61,0-5.31-1.21-7.92-2.38c-2.04-0.92-4.34-1.95-5.74-1.95c-1.4,0-3.71,1.04-5.75,1.95
		c-2.61,1.17-5.31,2.38-7.92,2.38c-2.61,0-5.31-1.21-7.92-2.38C3.71,49.75,1.4,48.72,0,48.72v-8c3.11,0,6.25,1.41,9.02,2.65
		c1.58,0.71,3.74,1.68,4.64,1.68c0.9,0,3.06-0.97,4.64-1.68c2.77-1.24,5.91-2.65,9.02-2.65c3.11,0,6.25,1.41,9.02,2.65
		c1.58,0.71,3.74,1.68,4.64,1.68c0.91,0,3.13-0.98,4.75-1.69c2.81-1.24,5.99-2.64,9.09-2.64c3.1,0,6.28,1.4,9.09,2.64
		c1.62,0.71,3.83,1.69,4.74,1.69c0.9,0,3.06-0.97,4.64-1.68c2.77-1.24,5.91-2.65,9.02-2.65c3.11,0,6.25,1.41,9.02,2.65
		c1.58,0.71,3.74,1.68,4.64,1.68c0.9,0,3.06-0.97,4.64-1.68c2.77-1.24,5.91-2.65,9.02-2.65v8c-1.4,0-3.71,1.04-5.75,1.95
		C101.31,51.84,98.61,53.05,96,53.05z"/>
</g>
</svg>
