<?xml version="1.0" encoding="utf-8"?>
<!-- Generator: Adobe Illustrator 25.0.1, SVG Export Plug-In . SVG Version: 6.00 Build 0)  -->
<svg version="1.1" id="Layer_1" xmlns="http://www.w3.org/2000/svg" xmlns:xlink="http://www.w3.org/1999/xlink" x="0px" y="0px"
	 viewBox="0 0 61.35 120.94" style="enable-background:new 0 0 61.35 120.94;" xml:space="preserve">
<path d="M58.87,26.34L46.82,53.69c-1.59-2.73-4-5.06-7.12-6.16l10.93-24.81c1-2.28,3.66-3.3,5.93-2.3
	C58.84,21.41,59.87,24.07,58.87,26.34z M39.45,36.52c0-6.14-4.95-11.06-11.06-11.06c-6.11,0-11.06,4.92-11.06,11.06
	c0,6.13,4.95,11.06,11.06,11.06C34.5,47.58,39.45,42.65,39.45,36.52z M53.26,97.58l-5.03,19.25c-0.65,2.47-2.88,4.11-5.32,4.11
	c-0.46,0-0.93-0.06-1.39-0.18c-2.94-0.77-4.7-3.77-3.93-6.71l4.38-16.77l-1.44-7.01l-4.8,12.42l-11.4,15.95
	c-1.07,1.5-2.76,2.3-4.48,2.3c-1.11,0-2.22-0.33-3.2-1.03c-2.47-1.77-3.04-5.2-1.27-7.67l10.59-14.82l4.65-12.04L26.05,64.8
	l-7.23,4.48c-1.96,1.22-4.52,0.5-5.7-0.8L2.78,57.08c-1.67-1.84-1.53-4.69,0.31-6.36c0.47-0.42,1-0.73,1.56-0.92L6.2,37.42
	c0.04-0.35,0.19-0.66,0.4-0.92c0.14-4.6-1.83-9.07-3.54-11.35c-2.32-3.09-3.5-7.33-2.92-12.06c0.46-3.76,1.96-7.19,4.22-9.63
	c2.36-2.55,5.26-3.76,8.18-3.4c2.91,0.36,5.44,2.23,7.11,5.28c1.6,2.92,2.23,6.61,1.76,10.37c-0.58,4.72-2.75,8.56-5.75,11
	c-2.2,1.79-5.17,5.61-6.17,10.08c0.17,0.31,0.25,0.67,0.2,1.05L8.17,50.07c0.46,0.24,0.9,0.55,1.27,0.96l7.82,8.62l11.78-7.29
	c1.61-1,4.33-2.04,6.74-2.02c5.21,0.04,8.65,4.64,9.59,9.12c0.91,4.34,3.43,16.44,3.92,18.76c0.01,0.03,0.02,0.05,0.02,0.08
	L53.26,97.58z M9.3,26.49c4.61,0.56,9.03-4.39,9.85-11.05c0.4-3.29-0.13-6.49-1.5-8.99c-1.31-2.38-3.21-3.84-5.38-4.11l-0.02,0
	c-2.16-0.27-4.37,0.69-6.21,2.69c-1.94,2.1-3.23,5.07-3.63,8.37C1.6,20.04,4.69,25.92,9.3,26.49z M7.73,29.29
	c0.18,0.54,0.58,1.91,0.65,2.23c0.05,0.11,0.15,0.2,0.28,0.22c0.13,0.02,0.25-0.04,0.32-0.14c0.14-0.29,0.86-1.52,1.17-2
	c0.19-0.31,0.12-0.79-0.5-0.8c-0.17,0-0.47-0.02-0.62-0.03c-0.16-0.02-0.45-0.08-0.62-0.12C7.8,28.49,7.62,28.95,7.73,29.29z
	 M56.35,10.36c0,1.38,1.12,2.5,2.5,2.5s2.5-1.12,2.5-2.5c0-1.38-1.12-2.5-2.5-2.5S56.35,8.98,56.35,10.36z"/>
</svg>
