<?xml version="1.0" encoding="utf-8"?>
<!-- Generator: Adobe Illustrator 25.0.1, SVG Export Plug-In . SVG Version: 6.00 Build 0)  -->
<svg version="1.1" id="Layer_1" xmlns="http://www.w3.org/2000/svg" xmlns:xlink="http://www.w3.org/1999/xlink" x="0px" y="0px"
	 viewBox="0 0 92.33 107.78" style="enable-background:new 0 0 92.33 107.78;" xml:space="preserve">
<g>
	<g>
		<g>
			<g>
				<g>
					<g>
						<path d="M55.65,28.14c0-5.26-4.24-9.48-9.49-9.48c-5.24,0-9.48,4.22-9.48,9.48c0,5.26,4.24,9.48,9.48,9.48
							C51.41,37.62,55.65,33.4,55.65,28.14z"/>
					</g>
				</g>
			</g>
		</g>
		<path d="M74.51,22.84c1.28-2.08,0.63-4.8-1.45-6.08c-2.08-1.27-4.8-0.63-6.08,1.45L53.25,40.58H39.08L25.35,18.22
			c-1.28-2.08-4-2.73-6.08-1.45c-2.08,1.28-2.73,4-1.45,6.08l16.84,27.43l1.97,19.99l-10.64,30.16c-1.01,2.88,0.5,6.03,3.37,7.05
			c0.61,0.21,1.23,0.32,1.84,0.32c2.28,0,4.41-1.42,5.21-3.69l9.76-27.67l9.76,27.67c0.8,2.27,2.93,3.69,5.21,3.69
			c0.61,0,1.23-0.1,1.84-0.32c2.88-1.01,4.39-4.17,3.37-7.05L55.7,70.26l1.97-19.99L74.51,22.84z"/>
	</g>
	<path d="M90.69,10.85h-1.21V5c0-1.66-1.34-3-3-3c-1.37,0-2.51,0.92-2.87,2.17V3c0-1.66-1.34-3-3-3c-1.66,0-3,1.34-3,3v7.85H14.72V3
		c0-1.66-1.34-3-3-3c-1.66,0-3,1.34-3,3v1.17C8.36,2.92,7.22,2,5.85,2c-1.66,0-3,1.34-3,3v5.85H1.64C0.74,10.85,0,11.58,0,12.49
		c0,0.91,0.74,1.64,1.64,1.64h1.21V20c0,1.66,1.34,3,3,3c1.37,0,2.51-0.92,2.87-2.17V22c0,1.66,1.34,3,3,3c1.66,0,3-1.34,3-3v-7.87
		h62.89V22c0,1.66,1.34,3,3,3c1.66,0,3-1.34,3-3v-1.17c0.36,1.25,1.5,2.17,2.87,2.17c1.66,0,3-1.34,3-3v-5.87h1.21
		c0.91,0,1.64-0.74,1.64-1.64C92.33,11.58,91.6,10.85,90.69,10.85z"/>
</g>
</svg>
