<?xml version="1.0" encoding="utf-8"?>
<!-- Generator: Adobe Illustrator 25.0.1, SVG Export Plug-In . SVG Version: 6.00 Build 0)  -->
<svg version="1.1" id="Layer_1" xmlns="http://www.w3.org/2000/svg" xmlns:xlink="http://www.w3.org/1999/xlink" x="0px" y="0px"
	 viewBox="0 0 77.12 83.26" style="enable-background:new 0 0 77.12 83.26;" xml:space="preserve">
<g>
	<path d="M49.11,11.06C49.11,4.92,44.16,0,38.04,0c-6.11,0-11.06,4.92-11.06,11.06c0,6.13,4.95,11.06,11.06,11.06
		C44.16,22.12,49.11,17.19,49.11,11.06z"/>
	<path d="M72.49,72.29c-13.76-2.26-21.38-9.33-25.04-14.04l1.22-22.88H71.5c2.44,0,4.42-1.98,4.42-4.42c0-2.44-1.98-4.42-4.42-4.42
		H4.42C1.98,26.54,0,28.51,0,30.95c0,2.44,1.98,4.42,4.42,4.42h23.83v16.48H13.25v25.88c0,3.05,2.47,5.52,5.52,5.52
		c3.05,0,5.52-2.47,5.52-5.52V62.9h12.92c4.33,6.31,14.33,17.14,33.49,20.29c0.3,0.05,0.61,0.07,0.9,0.07c2.66,0,5-1.92,5.44-4.63
		C77.54,75.62,75.5,72.78,72.49,72.29z"/>
</g>
</svg>
